<svg width="23.999999999999996" height="23.999999999999996" xmlns="http://www.w3.org/2000/svg" version="1.1">
 <g>
  <title>Layer 1</title>
  <circle cx="12" cy="11.9" r="12" fill="white" id="svg_1"/>
  <g stroke="null" id="surface1">
   <path stroke="null" id="icon" d="m21.93934,9.92521l-0.02805,-0.07039l-2.81172,-7.2774c-0.05609,-0.14414 -0.15425,-0.26481 -0.28748,-0.34526c-0.09817,-0.06369 -0.20685,-0.10056 -0.32255,-0.11397c-0.1192,-0.01006 -0.23139,0.00335 -0.34007,0.04358c-0.10869,0.04358 -0.20685,0.10727 -0.28748,0.19442c-0.07363,0.08381 -0.13323,0.18436 -0.16478,0.29498l-1.89318,5.7656l-7.68141,0l-1.89669,-5.7656c-0.03506,-0.11062 -0.09115,-0.21118 -0.16828,-0.29498c-0.08063,-0.08715 -0.17529,-0.15084 -0.28397,-0.19107c-0.10869,-0.04358 -0.22438,-0.05698 -0.34007,-0.04692c-0.1157,0.0134 -0.22438,0.05028 -0.32255,0.11397c-0.12972,0.08045 -0.23139,0.20112 -0.28748,0.34526l-2.80821,7.2774l-0.03156,0.07039c-0.40318,1.04921 -0.45226,2.20233 -0.14024,3.28506c0.31203,1.07602 0.96762,2.02802 1.87215,2.70514l0.01052,0.0067l0.02454,0.01677l4.27017,3.18448l2.12106,1.5889l1.29017,0.96875c0.15075,0.07375 0.33657,0.17096 0.52589,0.17096c0.18932,0 0.37513,-0.09721 0.52238,-0.17096l1.29017,-0.96875l2.12106,-1.5889l4.30173,-3.20125l0.01052,-0.01005c0.90452,-0.67713 1.56012,-1.62577 1.84059,-2.70179c0.34708,-1.08273 0.298,-2.23585 -0.10518,-3.28506zm0,0" fill="#fa783c"/>
  </g>
 </g>

</svg>